<svg xmlns="http://www.w3.org/2000/svg" width="181" height="181" fill="none" viewBox="0 0 181 181">
  <g clip-path="url(#a)">
    <path fill="#23272A" d="M0 0h181v181H0z"/>
    <path fill="#CC7A2D" d="m97.249 72.42 76.4 53.4-151.178 2.249 74.778-55.648Z"/>
    <path fill="#fff" d="M142.857 43.569c-1.597-1.258-5.877-2.267-9.081-3.019l-4.336-.58V29.488l2.22-.034c2.081 1.055 5.079 2.786 5.234 5.106h8.362c-.156-4.64-3.68-7.568-6.817-9.893-2.081-1.542-4.359-2.366-8.999-2.865V16h-4.64v5.624c-4.64.445-6.139 1.6-8.234 3.487-2.74 2.466-3.96 5.56-3.96 9.287 0 4.083 1.167 7.083 3.972 9.003 1.568 1.089 3.582 2.1 8.222 3.037v11.357c-2.32-.41-2.325-.306-3.144-1.279-.788-.941-1.004-3.396-1.273-3.396h-8.297c0 4.64 1.256 6.863 4.397 9.338 2.264 1.784 3.677 2.1 8.317 2.568v4.334h4.64V65.1c4.64-.447 8.582-1.628 10.848-3.563 2.942-2.513 5.348-5.67 5.348-9.47-.002-3.708-.299-6.538-2.779-8.498Zm-20.335-6.464c-1.35-.735-1.87-1.849-1.87-3.336 0-1.62.448-2.886 1.816-3.791.722-.476.012-.821 2.332-1.051v9.14c-2.32-.352-1.768-.672-2.278-.962Zm10.076 20.462c-.39.135-3.158.242-3.158.337v-9.668c4.64.4 4.283.829 5.053 1.295 1.209.752 1.817 1.824 1.817 3.195 0 2.357-1.242 3.974-3.712 4.841ZM121.366 85.6h-1.282l-14.255-25.81c-.614-1.116-2.164-2.03-3.44-2.03H59.142c-1.276 0-2.826.914-3.44 2.03L41.446 85.6h-1.28c-2.555 0-5.847 2.088-5.847 4.64v23.2c0 2.552 3.292 4.64 5.846 4.64H43.6v6.96c0 3.828 4.338 6.96 8.166 6.96h2.32c3.828 0 5.754-3.132 5.754-6.96v-6.96h39.44v6.96c0 3.828 4.336 6.96 8.166 6.96h2.32c3.828 0 5.754-3.132 5.754-6.96v-6.96h5.846c2.552 0 3.434-2.088 3.434-4.64v-23.2c0-2.552-.884-4.64-3.434-4.64Zm-73.08 18.56a5.8 5.8 0 1 1 0-11.599 5.8 5.8 0 0 1 0 11.599Zm4.64-18.56 9.403-18.804c.569-1.143 2.081-2.076 3.357-2.076h30.16c1.276 0 2.787.933 3.358 2.076l9.402 18.804h-55.68Zm60.32 18.56a5.8 5.8 0 1 1 0-11.599 5.8 5.8 0 0 1 0 11.599Z"/>
  </g>
  <defs>
    <clipPath id="a">
      <path fill="#fff" d="M0 0h181v181H0z"/>
    </clipPath>
  </defs>
</svg>
