<svg xmlns="http://www.w3.org/2000/svg" width="181" height="181" fill="none" viewBox="0 0 181 181">
  <g clip-path="url(#a)">
    <path fill="#23272A" d="M0 0h181v181H0z"/>
    <path fill="#CC7A2D" d="m123.462 46.385 44.571 72.332-83.53-15.532-44.57-72.332 83.529 15.532Z"/>
    <path fill="#fff" d="M106.917 99.667h-3.819l-1.353-1.305a31.275 31.275 0 0 0 7.588-20.445 31.417 31.417 0 1 0-31.416 31.416c7.781 0 14.935-2.851 20.445-7.588l1.305 1.353v3.819l24.166 24.118 7.202-7.202-24.118-24.166Zm-29 0c-12.035 0-21.75-9.715-21.75-21.75s9.715-21.75 21.75-21.75 21.75 9.715 21.75 21.75-9.715 21.75-21.75 21.75Z"/>
  </g>
  <defs>
    <clipPath id="a">
      <path fill="#fff" d="M0 0h181v181H0z"/>
    </clipPath>
  </defs>
</svg>
