<svg xmlns="http://www.w3.org/2000/svg" width="181" height="181" fill="none" viewBox="0 0 181 181">
  <g clip-path="url(#a)">
    <path fill="#23272A" d="M0 0h181v181H0z"/>
    <path fill="#CC7A2D" d="m50.677 39.502 69.808-20.704-.562 45.443-70.154 48.788-42.797-15.29 43.705-58.237Z"/>
    <path fill="#fff" d="m67.767 110.333 14.741-14.741 9.667 9.666 17.158-17.037v7.612H119V71.667H94.833v9.666h7.613L92.175 91.604l-9.667-9.666L61 103.567l6.767 6.766Zm-11.6 24.167c-2.659 0-4.935-.947-6.83-2.842-1.895-1.895-2.84-4.17-2.837-6.825V57.167c0-2.659.947-4.935 2.842-6.83 1.895-1.895 4.17-2.84 6.825-2.837h67.666c2.659 0 4.935.947 6.83 2.842 1.895 1.895 2.84 4.17 2.837 6.825v67.666c0 2.659-.947 4.935-2.842 6.83-1.895 1.894-4.17 2.84-6.825 2.837H56.167Zm0-9.667h67.666V57.167H56.167v67.666Z"/>
  </g>
  <defs>
    <clipPath id="a">
      <path fill="#fff" d="M0 0h181v181H0z"/>
    </clipPath>
  </defs>
</svg>
